<svg id="Layer_1" data-name="Layer 1" xmlns="http://www.w3.org/2000/svg" viewBox="0 0 303.73 303.73"><defs><style>.cls-1{fill:#a7a9ac;}</style></defs><title>AD - Grey</title><path class="cls-1" d="M70.73,46.88l-2.82,2-5-19.94,2.85-2L82.9,38.28l-2.91,2-3.26-2.22-7,5ZM66.66,31.24l0,0L68.92,40l5.19-3.67Z"/><path class="cls-1" d="M109.26,26l-3.55,1.46L99.23,22l-4.06,1.68,2.88,7L95,31.9,87.72,14.18,95.5,11a6.46,6.46,0,0,1,5-.32,5.68,5.68,0,0,1,3.1,3.28,6,6,0,0,1,.42,3.49,5.06,5.06,0,0,1-1.83,2.93Zm-8.67-8.69a2.72,2.72,0,0,0-.08-2.16A2.73,2.73,0,0,0,99,13.59a3,3,0,0,0-2.36.16l-4.79,2L94,20.87l4.79-2A3.09,3.09,0,0,0,100.59,17.34Z"/><path class="cls-1" d="M135.74,17.05l.51,3L123,22.32,119.71,3.43,133,1.14l.52,3L123.45,5.86l.83,4.84L133.89,9l.51,3-9.6,1.66.88,5.11Z"/><path class="cls-1" d="M153.18,16.69a9.82,9.82,0,0,1-2.35-7.3,9.86,9.86,0,0,1,3.22-7,10.34,10.34,0,0,1,14.23.87,9.85,9.85,0,0,1,2.34,7.3,9.87,9.87,0,0,1-3.21,7,10.34,10.34,0,0,1-14.23-.87Zm3.21-11.94a6.87,6.87,0,0,0-2.1,4.85,6.85,6.85,0,0,0,1.5,5.07,6.65,6.65,0,0,0,9.27.57,6.92,6.92,0,0,0,2.11-4.85,6.9,6.9,0,0,0-1.51-5.07,6.65,6.65,0,0,0-9.27-.57Z"/><path class="cls-1" d="M197.13,23.8l-.85,2.9-11.66-3.43L190,4.88l3.13.92-4.56,15.49Z"/><path class="cls-1" d="M210.27,32.65l-3-1.66,15.68-13.28L226,19.37l-2.61,20.4-3.13-1.7.55-3.91-7.53-4.1ZM222.5,22.09l0,0L215.65,28l5.59,3Z"/><path class="cls-1" d="M252.17,65l-4.21-5,14.59-12.43,4.22,4.95q3.15,3.7,2.91,7.48a10.27,10.27,0,0,1-10.59,9Q255.33,68.71,252.17,65Zm6.93.79a7.54,7.54,0,0,0,7.34-6.25,7.08,7.08,0,0,0-2-5.09l-2-2.38-10,8.5,2,2.39A7.08,7.08,0,0,0,259.1,65.8Z"/><path class="cls-1" d="M267.2,85.9l-1.59-3.06L286,80.59l1.61,3.1L274.07,99.13,272.42,96,275.07,93l-3.95-7.61Zm16-1.91,0,0-9,1.09,2.92,5.64Z"/><path class="cls-1" d="M292.9,111.72l-13.34,3.35-.79-3.12,18.6-4.67.79,3.18L287,122.92l13.45-3.38.79,3.12-18.6,4.66-.81-3.24Z"/><path class="cls-1" d="M303.73,145.57l-19.14,1-.17-3.26,19.14-1Z"/><path class="cls-1" d="M285.72,176.46l-3-.38,1.7-13.37,19,2.42-1.7,13.37-3-.39L300,168l-4.88-.62L293.92,177l-3-.38,1.23-9.67-5.14-.65Z"/><path class="cls-1" d="M277.93,203.27l-2.86-1,4-11.47,18.11,6.28-1.07,3.09-15.26-5.3Z"/><path class="cls-1" d="M261,242l-2.37-1.83,5.27-6.79,2.37,1.84Z"/><path class="cls-1" d="M229.14,260.23l2.9-1.88,4.25,20.11-2.92,1.9-16.71-12,3-1.94,3.17,2.34,7.19-4.68ZM232.63,276l0,0-2-8.8-5.33,3.47Z"/><path class="cls-1" d="M189.87,279.62l3.6-1.33,6.26,5.75,4.13-1.52-2.62-7.1,3.07-1.13,6.64,18-7.9,2.92a6.45,6.45,0,0,1-5,.14,5.68,5.68,0,0,1-3-3.39,6,6,0,0,1-.29-3.51,5.05,5.05,0,0,1,1.94-2.86Zm8.34,9a2.74,2.74,0,0,0,0,2.16,2.71,2.71,0,0,0,1.41,1.64,3,3,0,0,0,2.36-.06l4.87-1.8-1.93-5.22-4.86,1.8A3,3,0,0,0,198.21,288.63Z"/><path class="cls-1" d="M163.06,287.59l-.4-3L176,282.81l2.55,19-13.35,1.79-.41-3,10.12-1.36-.65-4.87-9.66,1.3-.41-3,9.66-1.29-.69-5.14Z"/><path class="cls-1" d="M145.61,287.31a10.59,10.59,0,0,1-1.4,14.22,10.36,10.36,0,0,1-14.19-1.4,10.55,10.55,0,0,1,1.4-14.21,10.35,10.35,0,0,1,14.19,1.39ZM142,299.12a7.75,7.75,0,0,0,1-9.89,6.66,6.66,0,0,0-9.24-.91,7.73,7.73,0,0,0-1,9.89,6.65,6.65,0,0,0,9.25.91Z"/><path class="cls-1" d="M102,278.56l1-2.86,11.51,3.87-6.1,18.17-3.1-1,5.14-15.31Z"/><path class="cls-1" d="M89.15,269.22l3,1.76L76,283.67l-3-1.78,3.39-20.29,3.06,1.83-.7,3.88,7.37,4.38ZM76.53,279.31l0,0,7-5.65-5.46-3.25Z"/><path class="cls-1" d="M48.51,235.33l4,5.11-15,11.87-4-5.1c-2-2.55-2.89-5.07-2.63-7.58a9.28,9.28,0,0,1,3.78-6.44A9.23,9.23,0,0,1,41.76,231C44.25,231.35,46.51,232.79,48.51,235.33Zm-6.89-1a6.52,6.52,0,0,0-4.86,1.62,6.55,6.55,0,0,0-2.71,4.35,7.07,7.07,0,0,0,1.86,5.16l1.94,2.46,10.3-8.13-1.94-2.46A7.05,7.05,0,0,0,41.62,234.29Z"/><path class="cls-1" d="M34.27,213.87,35.74,217l-20.5,1.47-1.49-3.15L27.9,200.4l1.52,3.22-2.75,2.83,3.66,7.75Zm-16.11,1.31,0,0,9-.75-2.71-5.75Z"/><path class="cls-1" d="M9.56,187.12,23,184.27l.66,3.14-18.75,4-.68-3.2,11.64-12L2.32,179l-.67-3.15,18.76-4,.69,3.27Z"/><path class="cls-1" d="M0,152.89l19.17-.31,0,3.27-19.17.31Z"/><path class="cls-1" d="M19.15,122.68l3,.49-2.2,13.3L1,133.34l2.2-13.29,3,.49L4.54,130.61l4.84.8L11,121.79l3,.5-1.59,9.61,5.11.85Z"/><path class="cls-1" d="M28,96.19l2.81,1.09L26.35,108.6l-17.86-7,1.19-3,15,5.86Z"/><path class="cls-1" d="M46.37,58.1,48.66,60l-5.51,6.58-2.3-1.92Z"/></svg>